<?xml version="1.0" encoding="UTF-8"?>
<svg width="1071.7" height="442.24" version="1.1" viewBox="0 0 1071.675 442.23749" xmlns="http://www.w3.org/2000/svg">
<style type="text/css"><![CDATA[ g.sponsorLogo path {fill:#DDD !important;} ]]></style>
<g class="sponsorLogo">
 <path d="M325.696 360.15c1.195 0 1.435.55 1.361 1.451l-1.678 14.063c-.805 6.557-5.039 12.315-19.049 12.315-12.317 0-16.486-4.871-16.486-10.62 0-.565.084-1.375.16-2l3.772-30.714c.798-6.559 4.982-12.315 18.964-12.315 12.303 0 16.483 4.879 16.483 10.795 0 .474-.092 1.199-.175 1.909l-.33 3.115c-.064 1.039-.544 1.535-1.66 1.535h-4.645c-1.042 0-1.352-.573-1.275-1.535l.233-2.23c.084-.48.084-.961.084-1.365 0-3.437-2.562-5.596-9.12-5.596-7.104 0-10.322 2.64-10.882 6.96l-3.444 28.066c-.058.557-.153 1.131-.153 1.596 0 3.611 2.485 5.764 9.12 5.764 7.368 0 10.314-2.55 10.879-6.879l.954-7.665h-9.505c-1.056 0-1.359-.496-1.294-1.542l.413-3.657c.076-1.06.637-1.45 1.66-1.45h15.613M337.376 357.997c.79-6.566 5.578-10.963 17.185-10.963 10.072 0 14.858 3.765 14.858 9.52 0 .474 0 .963-.069 1.443l-2.317 19.042c-.805 6.534-5.527 10.94-17.124 10.94-10.154 0-14.94-3.842-14.94-9.598 0-.396 0-.877.067-1.342l2.34-19.042zm24.374.642v-.795c0-3.046-2.47-4.566-7.753-4.566-5.993 0-8.623 1.91-9.043 5.36l-2.233 17.75c-.076.313-.076.65-.076.878 0 3.048 2.309 4.481 7.832 4.481 5.998 0 8.635-1.923 9.032-5.358l2.241-17.75M396.205 347.835l.729-5.763c.791-6.543 5.397-10.933 16.937-10.933h.801c1.047 0 1.52.382 1.36 1.503l-.39 3.368c-.167 1.099-.725 1.587-1.77 1.587h-.565c-6.043 0-8.517 1.924-8.91 5.29l-.637 4.948h7.806c1.115 0 1.588.406 1.435 1.444l-.397 3.198c-.153 1.123-.642 1.604-1.68 1.604h-7.802l-5.96 47.96c-.152 1.138-.545 1.619-1.58 1.619h-4.698c-1.023 0-1.413-.481-1.26-1.619l5.958-47.96h-4.698c-1.108 0-1.504-.481-1.337-1.604l.314-2.793c.08-1.054.553-1.443 1.66-1.535l4.214-.314h.47M437.63 383.338c-2.572 1.762-6.963 4.64-13.681 4.64-6.794 0-10.321-3.512-10.321-9.047 0-.55.09-1.184.167-1.838l2.397-19.18c.794-6.558 4.305-10.863 12.407-10.863 6.55 0 10.879 2.954 12.956 4.779l.496-2.55c.19-1.13.541-1.61 1.641-1.61h4.252c.802 0 1.429.41 1.276 1.61l-4.481 36.463c-.161 1.122-.65 1.596-1.689 1.596h-4.305c-.87 0-1.282-.406-1.282-1.596l.167-2.404zm-16.163-7.354c-.076.405-.076.717-.076 1.109 0 2.327 1.444 4.09 5.436 4.09 4.97 0 9.43-2.802 11.353-4.09l2.397-19.096c-1.588-1.366-5.283-4.16-10.306-4.16-4.474 0-6.231 2.397-6.642 5.192l-2.162 16.955M480.964 348.63l-.488 3.771c-.145 1.122-.634 1.435-1.771 1.504-5.734.413-10.857 3.459-12.934 5.055l-3.282 26.782c-.153 1.122-.55 1.596-1.665 1.596h-4.718c-1.069 0-1.466-.474-1.297-1.596l4.565-36.554c.145-1.04.557-1.52 1.602-1.52h4.314c1.039 0 1.436.48 1.375 1.52l-.245 3.45c2.466-2.16 7.04-5.52 13.094-5.52 1.115 0 1.619.397 1.45 1.512M481.95 385.825c-.146 1.107-.542 1.513-1.596 1.513h-4.795c-1.03 0-1.443-.406-1.267-1.513l.718-6.405c.075-1.039.625-1.511 1.679-1.511h4.855c1.055 0 1.375.472 1.207 1.511l-.801 6.405M539.644 332.964c1.038 0 1.52.38 1.358 1.527l-.465 3.595c-.16 1.115-.657 1.526-1.687 1.526H515.9l-2.076 16.226h21.575c1.054 0 1.542.396 1.359 1.526l-.465 3.68c-.162 1.022-.65 1.503-1.673 1.503h-21.521l-2.955 23.195c-.16 1.122-.481 1.596-1.604 1.596h-4.87c-1.024 0-1.542-.474-1.359-1.596l6.307-51.176c.167-1.121.632-1.602 1.678-1.602h29.348M572.014 367.746c-.092.97-.634 1.436-1.603 1.436H548.67l-.856 6.802c-.1.802-.19 1.375-.19 1.68 0 2.719 1.93 4.397 7.443 4.397 6.085 0 8.214-2.076 8.626-5.114l.17-1.283c.167-1.039.717-1.52 1.754-1.52h4.002c1.037 0 1.358.566 1.282 1.52l-.169 1.375c-.801 6.534-4.481 10.94-16.138 10.94-10.162 0-14.4-3.773-14.4-9.444 0-.55 0-1.031.077-1.496l2.336-19.042c.779-6.566 5.017-10.963 16.529-10.963 9.932 0 14.17 3.765 14.17 9.437 0 .488 0 1.046-.092 1.526l-1.2 9.75zm-22.62-4.236h15.978l.65-4.802c.068-.39.068-.954.068-1.26 0-2.734-1.894-4.497-7.436-4.497-6.002 0-8.23 2.169-8.628 5.367l-.632 5.192M610.31 367.746c-.07.97-.642 1.436-1.581 1.436h-21.75l-.887 6.802c-.076.802-.152 1.375-.152 1.68 0 2.719 1.909 4.397 7.42 4.397 6.086 0 8.237-2.076 8.644-5.114l.152-1.283c.168-1.039.718-1.52 1.756-1.52h4.008c1.031 0 1.366.566 1.29 1.52l-.169 1.375c-.8 6.534-4.481 10.94-16.154 10.94-10.16 0-14.382-3.773-14.382-9.444 0-.55 0-1.031.061-1.496l2.335-19.042c.788-6.566 5.039-10.963 16.551-10.963 9.91 0 14.148 3.765 14.148 9.437 0 .488 0 1.046-.093 1.526l-1.197 9.75zm-22.622-4.236h15.98l.656-4.802c.07-.39.07-.954.07-1.26 0-2.734-1.903-4.497-7.43-4.497-5.985 0-8.244 2.169-8.626 5.367l-.65 5.192M624.471 385.742c-.16 1.122-.556 1.596-1.671 1.596h-4.734c-1.038 0-1.426-.474-1.26-1.596l6.483-52.702c.152-1.106.626-1.604 1.68-1.604h4.702c1.038 0 1.35.498 1.206 1.604l-6.406 52.702M647.528 378.863c0-.558.068-1.2.168-1.77l2.39-19.18c.794-6.558 4.32-10.88 12.398-10.88 6.559 0 10.865 2.97 12.957 4.796l.473-2.55c.237-1.13.557-1.61 1.604-1.61h4.312c1.115 0 1.374.656 1.269 1.61l-5.254 43.426c-.816 6.55-5.29 10.955-17.2 10.955h-11.033c-1.053 0-1.603-.481-1.45-1.511l.397-3.383c.167-1.031.734-1.496 1.764-1.496h11.047c6.146 0 8.475-2.008 8.864-5.368l1.045-8.397c-2.557 1.748-6.718 4.474-13.36 4.474-6.87 0-10.392-3.596-10.392-9.116m7.912-3.368c-.078.566-.147 1.206-.147 1.544 0 2.381 1.435 4.145 5.43 4.145 5.045 0 9.435-2.803 11.36-4.091l2.39-19.096c-1.605-1.366-5.353-4.16-10.308-4.16-4.565 0-6.322 2.397-6.627 5.192l-2.098 16.466M691.099 357.997c.808-6.566 5.603-10.963 17.208-10.963 10.063 0 14.857 3.765 14.857 9.52 0 .474 0 .963-.075 1.443l-2.33 19.042c-.785 6.534-5.512 10.94-17.1 10.94-10.147 0-14.949-3.842-14.949-9.598 0-.396 0-.877.082-1.342l2.307-19.042zm24.407.642v-.795c0-3.046-2.496-4.566-7.778-4.566-5.972 0-8.628 1.91-9.025 5.36l-2.23 17.75c-.092.313-.092.65-.092.878 0 3.048 2.322 4.481 7.842 4.481 5.986 0 8.635-1.923 9.047-5.358l2.236-17.75M731.394 357.997c.81-6.566 5.605-10.963 17.208-10.963 10.07 0 14.873 3.765 14.873 9.52 0 .474 0 .963-.076 1.443l-2.329 19.042c-.785 6.534-5.513 10.94-17.109 10.94-10.146 0-14.956-3.842-14.956-9.598 0-.396 0-.877.076-1.342l2.313-19.042zm24.401.642v-.795c0-3.046-2.459-4.566-7.756-4.566-6.002 0-8.629 1.91-9.042 5.36l-2.228 17.75c-.092.313-.092.65-.092.878 0 3.048 2.32 4.481 7.848 4.481 5.994 0 8.651-1.923 9.041-5.358l2.229-17.75M793.219 383.338c-2.565 1.762-6.719 4.64-13.605 4.64-6.787 0-10.314-3.512-10.314-9.04 0-.557.092-1.19.16-1.845l2.412-19.18c.803-6.558 4.314-10.863 12.4-10.863 6.145 0 10.627 2.786 12.704 4.558l2.244-18.568c.152-1.106.642-1.604 1.68-1.604h4.695c1.061 0 1.451.565 1.291 1.604l-6.475 52.702c-.137 1.122-.642 1.596-1.665 1.596h-4.321c-1.054 0-1.274-.474-1.274-1.596l.068-2.404zm-15.994-7.674c-.084.556-.161 1.037-.161 1.429 0 2.327 1.511 4.09 5.436 4.09 4.963 0 9.438-2.802 11.376-4.09l2.383-19.096c-1.604-1.366-5.36-4.16-10.315-4.16-4.573 0-6.33 2.397-6.643 5.192l-2.076 16.635M813.786 385.825c-.152 1.107-.548 1.513-1.587 1.513h-4.81c-1.038 0-1.435-.406-1.268-1.513l.719-6.405c.084-1.039.64-1.511 1.679-1.511h4.879c1.03 0 1.35.472 1.198 1.511l-.81 6.405M827.316 340.385c-.031.26-.122.381-.382.381h-1.084c-.245 0-.336-.12-.321-.381l.687-5.52c-.061.159-.191.473-.299.632l-1.998 3.506c-.115.198-.299.336-.519.336h-.802c-.23 0-.368-.138-.43-.336l-1.236-3.543a3.044 3.044 0 0 1-.075-.656l-.733 5.581c-.015.26-.107.381-.367.381h-1.023c-.244 0-.335-.12-.322-.381l1.063-8.574c.007-.245.136-.375.396-.375h1.009c.151 0 .244.07.297.221l1.832 4.994.222.671c.076-.145.206-.426.343-.64l3.031-5.054a.401.401 0 0 1 .359-.192h1.1c.29 0 .336.13.321.375l-1.069 8.574zm-9.239-8.949c.275 0 .36.115.335.36l-.105.846c-.03.26-.153.33-.427.33h-2.17l-.892 7.413c-.023.26-.145.381-.398.381h-1.166c-.247 0-.338-.12-.308-.381l.918-7.414h-2.169c-.26 0-.366-.069-.366-.329l.122-.847c.023-.244.138-.359.428-.359h6.198" fill="#a5bd1f"/>
 <path d="M193.941 210.23c-9.302 0-21.339 2.466-28.106 16.62-5.585-12.245-16.082-16.62-26.755-16.62-11.018 0-20.66 5.955-25.237 16.78v-14.856H93.008v88.485h20.835v-45.296c.504-19.392 9.819-26.92 19.308-26.92 9.994 0 15.923 8.047 15.923 23.422v48.794h20.659v-45.296c.51-19.392 9.818-26.92 19.307-26.92 10.001 0 15.915 8.047 15.915 23.422v48.794h20.826v-48.96c0-25.523-9.642-41.449-31.84-41.449M281.671 284.545c-15.579 0-25.229-12.596-25.229-28.331 0-15.201 8.978-27.966 24.732-27.966 15.411 0 26.076 11.71 26.076 28.843 0 17.491-11.356 27.454-25.579 27.454zm25.068-59.266c-6.936-10.14-17.613-15.049-29.134-15.049-26.251 0-42.159 20.804-42.159 45.815 0 25.874 16.588 46.51 41.999 46.51 12.521 0 23.197-5.596 29.294-15.224v13.308h20.842v-88.485H306.74v13.125M381.353 211.97c-6.918.596-14.335 3.291-19.733 13.994v-13.81h-20.484v88.485h20.828v-40.923c0-24.476 12.265-29.102 20.259-30.56 2.89-.52 5.855-.626 9.038-.626v-16.621c-.831 0-8.825-.061-9.909.061M436.027 268.115c.84 1.916 1.184 5.421 1.184 7.345 0 5.413-3.382 9.085-8.467 9.085-6.1 0-8.307-4.207-8.307-9.613V228.6h23.317v-16.445h-23.316v-23.606h-20.63l-.13 40.05v43.35c0 24.317 14.002 30.607 28.226 30.607 18.452 0 27.087-11.543 27.087-24.476 0-1.565-.335-6.65-1.847-9.964h-17.117M561.486 212.154l-18.46 59.275-17.613-56.824h-15.765l-17.438 56.824-18.636-59.275h-22.346l30.82 88.485h18.46l17.118-55.785 16.918 55.785h18.629L584 212.154h-22.514M627.809 284.194c-14.399 0-25.393-12.245-25.393-27.805 0-15.559 10.994-27.79 25.393-27.79 14.581 0 25.575 12.414 25.575 27.79 0 15.56-10.994 27.805-25.575 27.805zm0-73.964c-24.721 0-46.389 20.628-46.389 46.159 0 25.714 21.668 46.166 46.389 46.166 25.064 0 46.586-20.636 46.586-46.166 0-25.339-21.523-46.159-46.586-46.159M729.096 284.194c-14.39 0-25.416-12.245-25.416-27.805 0-15.559 11.026-27.79 25.416-27.79 14.56 0 25.562 12.414 25.562 27.79 0 15.56-11.002 27.805-25.562 27.805zm-.191-73.964c-24.72 0-46.386 20.628-46.386 46.159 0 25.714 21.666 46.166 46.386 46.166 25.074 0 46.588-20.636 46.588-46.166 0-25.339-21.514-46.159-46.588-46.159M785.433 300.639h20.842V176.98h-20.842v123.658zM56.099 232.34l-15.124-5.734c-12.765-4.68-13.934-10.925-13.934-15.078 0-9.552 7.895-14.4 17.461-14.4 8.566 0 16.804 3.475 20.828 15.782l18.14-7.802c-5.368-17.164-19.308-27.744-38.968-27.744-21.5 0-38.967 13.176-38.967 34.5 0 10.239 4.207 25.659 28.898 34.164l15.108 5.376c10.414 3.817 15.452 9.009 15.452 16.109 0 9.718-8.894 15.443-21.162 15.443-12.766 0-21.836-7.459-24.355-17.856L0 269.605c3.19 19.589 21.323 32.95 44.334 32.95 22.683 0 41.979-12.49 41.979-35.898-.149-11.963-7.378-26.866-30.214-34.317" fill="#FFFFFF"/>
 <path d="M947.85 17.692h17.683V-.004H947.85v17.696z" fill="#f1521e"/>
 <path d="M965.533 35.36h17.688V17.693h-17.689V35.36z" fill="#7fb5ce"/>
 <path d="M947.85 53.064h17.683V35.36H947.85v17.704z" fill="#6ecfd6"/>
 <path d="M947.85 88.45h17.683V70.76H947.85v17.69z" fill="#a5bd1f"/>
 <path d="M947.85 106.14h17.683V88.45H947.85v17.69z" fill="#1f345e"/>
 <path d="m965.53 106.14h17.688v-17.69h-17.689v17.69z" fill="#f9b135"/>
 <path d="m947.85 123.83h17.683v-17.69h-17.683v17.69z" fill="#9cc1e9"/>
 <path d="m965.53 123.83h17.688v-17.69h-17.689v17.69z" fill="#b6297c"/>
 <path d="m947.85 141.5h17.683v-17.675h-17.683v17.675z" fill="#f1521e"/>
 <path d="m965.53 141.5h17.688v-17.675h-17.689v17.675z" fill="#479edd"/>
 <path d="M947.85 159.2h17.683v-17.696H947.85V159.2z" fill="#a5bd1f"/>
 <path d="m965.53 159.2h17.688v-17.696h-17.689v17.696z" fill="#4abc39"/>
 <path d="M947.85 176.882h17.683V159.2H947.85v17.683z" fill="#6ecfd6"/>
 <path d="m965.53 176.88h17.688v-17.682h-17.689v17.683z" fill="#ed1d2f"/>
 <path d="m947.85 194.58h17.683v-17.696h-17.683v17.696z" fill="#4c5145"/>
 <path d="m965.53 194.58h17.688v-17.696h-17.689v17.696z" fill="#a5bd1f"/>
 <path d="m912.47 194.58h17.697v-17.696h-17.697v17.696z" fill="#479edd"/>
 <path d="m859.41 229.97h17.683v-17.699h-17.684v17.7zm70.758-35.387h17.68v-17.696h-17.68v17.696z" fill="#a5bd1f"/>
 <path d="m894.77 194.58h17.698v-17.696h-17.698v17.696z" fill="#2d915d"/>
 <path d="m877.09 212.27h17.68v-17.689h-17.68v17.689z" fill="#368cab"/>
 <path d="m1036.3 212.27h17.712v-17.689h-17.712v17.689z" fill="#2d915d"/>
 <path d="m859.41 247.66h17.683v-17.689h-17.684v17.689z" fill="#f1521e"/>
 <path d="m859.41 265.34h17.683v-17.69h-17.684v17.69z" fill="#368cab"/>
 <path d="m859.41 283.04h17.683v-17.697h-17.684v17.697z" fill="#f9b135"/>
 <path d="m877.09 300.72h17.68v-17.683h-17.68v17.682z" fill="#f1521e"/>
 <path d="m1054 229.97h17.673v-17.699h-17.673v17.7z" fill="#368cab"/>
 <path d="m1054 247.66h17.673v-17.689h-17.673v17.689z" fill="#1f345e"/>
 <path d="m1054 265.34h17.673v-17.69h-17.673v17.69z" fill="#95c8a1"/>
 <path d="m1054 283.04h17.673v-17.697h-17.673v17.697z" fill="#b6297c"/>
 <path d="m1036.3 300.72h17.712v-17.683h-17.712v17.682z" fill="#f9b135"/>
 <path d="m1000.9 194.58h17.698v-17.696h-17.698v17.696z" fill="#9cc1e9"/>
 <path d="m1018.6 194.58h17.698v-17.696h-17.698v17.696z" fill="#4abc39"/>
 <path d="m983.22 194.58h17.674v-17.696h-17.674v17.696z" fill="#368cab"/>
 <path d="m947.85 212.27h17.683v-17.689h-17.683v17.689z" fill="#ed1d2f"/>
 <path d="m965.53 212.27h17.688v-17.689h-17.689v17.689z" fill="#ec0774"/>
 <path d="m912.47 212.27h17.697v-17.689h-17.697v17.689z" fill="#f9b135"/>
 <path d="m930.17 212.27h17.68v-17.689h-17.68v17.689z" fill="#1f345e"/>
 <path d="m1000.9 212.27h17.698v-17.689h-17.698v17.689z" fill="#a5bd1f"/>
 <path d="m983.22 212.27h17.674v-17.689h-17.674v17.689z" fill="#c22923"/>
 <path d="m947.85 229.97h17.683v-17.699h-17.683v17.7z" fill="#c61c2f"/>
 <path d="m965.53 229.97h17.688v-17.699h-17.689v17.7z" fill="#c51459"/>
 <path d="m912.47 229.97h17.697v-17.699h-17.697v17.7z" fill="#2d915d"/>
 <path d="m930.17 229.97h17.68v-17.699h-17.68v17.7z" fill="#95c8a1"/>
 <path d="m1000.9 229.97h17.698v-17.699h-17.698v17.7z" fill="#94dac9"/>
 <path d="m983.22 229.97h17.674v-17.699h-17.674v17.7z" fill="#b6297c"/>
 <path d="m947.85 247.66h17.683v-17.689h-17.683v17.689z" fill="#7fb5ce"/>
 <path d="m965.53 247.66h17.688v-17.689h-17.689v17.689z" fill="#ed1d2f"/>
 <path d="m912.47 247.66h17.697v-17.689h-17.697v17.689z" fill="#b6297c"/>
 <path d="m930.17 247.66h17.68v-17.689h-17.68v17.689z" fill="#a5bd1f"/>
 <path d="m1000.9 247.66h17.698v-17.689h-17.698v17.689z" fill="#f9b135"/>
 <path d="m983.22 247.66h17.674v-17.689h-17.674v17.689z" fill="#479edd"/>
 <path d="m947.85 265.34h17.683v-17.69h-17.683v17.69z" fill="#f9b135"/>
 <path d="m965.53 265.34h17.688v-17.69h-17.689v17.69z" fill="#a5bd1f"/>
 <path d="m912.47 265.34h17.697v-17.69h-17.697v17.69z" fill="#f1521e"/>
 <path d="m930.17 265.34h17.68v-17.69h-17.68v17.69z" fill="#f3678e"/>
 <path d="m1000.9 265.34h17.698v-17.69h-17.698v17.69z" fill="#511542"/>
 <path d="m983.22 265.34h17.674v-17.69h-17.674v17.69z" fill="#94dac9"/>
 <path d="m947.85 283.04h17.683v-17.697h-17.683v17.697z" fill="#1f345e"/>
 <path d="m965.53 283.04h17.688v-17.697h-17.689v17.697z" fill="#4abc39"/>
 <path d="m912.47 283.04h17.697v-17.697h-17.697v17.697z" fill="#511542"/>
 <path d="m930.17 283.04h17.68v-17.697h-17.68v17.697z" fill="#9cc1e9"/>
 <path d="m1000.9 283.04h17.698v-17.697h-17.698v17.697z" fill="#368cab"/>
 <path d="m983.22 283.04h17.674v-17.697h-17.674v17.697z" fill="#762518"/>
 <path d="M947.85 300.723h17.683V283.04H947.85v17.682z" fill="#94dac9"/>
 <path d="m965.53 300.72h17.688v-17.683h-17.689v17.682z" fill="#f1521e"/>
 <path d="m912.47 300.72h17.697v-17.683h-17.697v17.682z" fill="#479edd"/>
 <path d="m930.17 300.72h17.68v-17.683h-17.68v17.682z" fill="#762518"/>
 <path d="m1000.9 300.72h17.698v-17.683h-17.698v17.682z" fill="#a5bd1f"/>
 <path d="m983.22 300.72h17.674v-17.683h-17.674v17.682z" fill="#95c8a1"/>
 <path d="m947.85 318.4h17.683v-17.683h-17.683v17.683z" fill="#4abc39"/>
 <path d="m965.53 318.4h17.688v-17.683h-17.689v17.683z" fill="#368cab"/>
 <path d="m912.47 318.4h17.697v-17.683h-17.697v17.683z" fill="#1f345e"/>
 <path d="m912.47 336.1h17.697v-17.696h-17.697v17.696z" fill="#f9b135"/>
 <path d="m912.47 353.78h17.697v-17.68h-17.697v17.68z" fill="#762518"/>
 <path d="m912.47 371.46h17.697v-17.683h-17.697v17.683z" fill="#f1521e"/>
 <path d="m912.47 389.16h17.697v-17.697h-17.697v17.697z" fill="#511542"/>
 <path d="m912.47 406.86h17.697v-17.697h-17.697v17.697z" fill="#368cab"/>
 <path d="m912.47 424.54h17.697v-17.681h-17.697v17.682z" fill="#4abc39"/>
 <path d="m912.47 442.24h17.697v-17.698h-17.697v17.696z" fill="#4c5145"/>
 <path d="m894.77 442.24h17.698v-17.698h-17.698v17.696z" fill="#a5bd1f"/>
 <path d="m1000.9 336.1h17.698v-17.696h-17.698v17.696z" fill="#b6297c"/>
 <path d="m1000.9 353.78h17.698v-17.68h-17.698v17.68z" fill="#a5bd1f"/>
 <path d="m1000.9 371.46h17.698v-17.683h-17.698v17.683z" fill="#2d915d"/>
 <path d="m1000.9 389.16h17.698v-17.697h-17.698v17.697z" fill="#94dac9"/>
 <path d="m1000.9 406.86h17.698v-17.697h-17.698v17.697z" fill="#762518"/>
 <path d="m1000.9 424.54h17.698v-17.681h-17.698v17.682z" fill="#9cc1e9"/>
 <path d="m1000.9 442.24h17.698v-17.698h-17.698v17.696z" fill="#f1521e"/>
 <path d="m1018.6 442.24h17.698v-17.698h-17.698v17.696zm-88.423-123.83h17.68v-17.683h-17.68v17.683z" fill="#a5bd1f"/>
 <path d="m1000.9 318.4h17.698v-17.683h-17.698v17.683z" fill="#7fb5ce"/>
 <path d="m983.22 318.4h17.674v-17.683h-17.674v17.683zm-70.749-229.96h17.697v-17.69h-17.697v17.69z" fill="#f9b135"/>
 <path d="m1000.9 88.45h17.698v-17.69h-17.698v17.69z" fill="#4abc39"/>
 <path d="m894.77 70.761h17.698v-17.697h-17.698v17.697z" fill="#368cab"/>
 <path d="m1018.6 70.761h17.698v-17.697h-17.698v17.697z" fill="#b6297c"/>
 <path d="m826.42 299.8c-4.931 0-8.49-3.994-8.49-8.979 0-4.955 3.559-9.03 8.429-9.03 4.84 0 8.352 4.075 8.352 9.076 0 4.939-3.512 8.933-8.291 8.933zm-0.061-20.254c-6.245 0-11.224 5.015-11.224 11.275 0 6.353 4.979 11.385 11.224 11.385 6.306 0 11.162-5.032 11.162-11.385 0-6.26-4.856-11.275-11.162-11.275" fill="#ddd"/>
 <path d="M826.636 290.569c1.199 0 1.872-.68 1.872-1.734v-.014c0-1.145-.734-1.741-1.918-1.741h-1.719v3.489h1.765zm-4.183-5.635h4.343c1.32 0 2.42.366 3.145 1.092.611.641.939 1.549.939 2.688v.091c0 1.718-.816 2.833-2.106 3.366l2.436 4.321h-2.719l-2.137-3.802h-1.483v3.803h-2.419v-11.56" fill="#ddd"/>
</g>
</svg>
