<svg xmlns="http://www.w3.org/2000/svg" viewBox="0 0 300 108">
  <text x="143.505" y="954.544" style="line-height:100%;text-align:start" font-weight="700" font-size="36" font-family="Mosk" letter-spacing="0" word-spacing="0" fill="#353839" transform="translate(-20.825 -922.329)">
    <tspan x="143.505" y="954.544">South</tspan><tspan x="143.505" y="987.544">Yorkshire</tspan><tspan x="143.505" y="1020.543">Orienteers</tspan>
  </text>
  <path d="M110.468 71.129l-53.522 39.224L3.102 71.571 23.347 8.378l66.357-.273z" fill="#353839" stroke="#fff" stroke-width="5.284"/>
  <path d="M27.902 39.022c.18-5.873.876-9.579 2.762-14.682 4.203-11.379 13.68-19.91 23.959-21.569 2.86-.461 7.474-.207 9.847.542 6.43 2.03 11.289 6.43 14.746 13.355.509 1.018 1.014 2.137 1.122 2.487.168.54.126.608-.28.452-.921-.354-8.673-.2-11.542.228-12.668 1.89-25.424 8.85-37.08 20.228l-3.675 3.589.141-4.63z" fill="gold" stroke="#fff" stroke-width="5"/>
  <path d="M96.358 64.301c-.793-4.03-3.638-10.781-6.236-14.798-6.226-9.624-15.285-17.396-27.724-23.784l-4.453-2.288 1.07-.428c1.827-.73 6.918-2.002 9.688-2.42 3.386-.51 9.31-.51 12.689 0 7.194 1.085 13.262 3.919 18.034 8.423 5.236 4.943 7.812 10.529 7.822 16.964.01 4.582-1.374 8.922-4.188 13.154-1.179 1.773-5.752 6.826-6.179 6.826-.11 0-.344-.741-.523-1.647z" fill="#ffd300" stroke="#fff" stroke-width="5"/>
  <path d="M68.307 100.459c-3.109-.667-7.214-2.322-10.067-4.056l-.817-.497 2.065-1.255c14.225-8.635 23.645-25.734 26.42-47.953l.174-1.393.87 1.14c4.096 5.363 7.47 12.568 8.726 18.633 2.4 11.594-.706 23.253-7.992 29.999-4.337 4.016-8.92 5.808-14.75 5.77-1.6-.01-3.684-.185-4.63-.388z" fill="#ffd300" stroke="#fff" stroke-width="5"/>
  <path d="M36.428 99.101c-6.02-.772-12.218-3.888-15.555-7.82-3.6-4.244-5.212-8.736-5.212-14.527 0-2.683.734-7.627 1.275-8.595.13-.233.702.107 1.903 1.13 5.801 4.946 13.92 8.764 22.351 10.511 4.998 1.036 8.043 1.322 14.154 1.33 5.87.01 9.157-.257 14.763-1.184 1.79-.297 3.362-.502 3.493-.456.47.165-3.34 4.907-6.336 7.888-3.601 3.582-6.978 6.052-10.994 8.04-5.337 2.643-10.57 3.895-15.986 3.825-1.684-.022-3.42-.085-3.856-.142z" fill="#ffd300" stroke="#fff" stroke-width="5"/>
  <path d="M27.561 44.477c16.846-6.944 38.996-4.241 38.996-4.241M56.6 23.448c12.554 15.43 16.032 35.607 16.032 35.607m13.102-14.617c-11.62 16.877-29.061 26.241-29.061 26.241m18.022 8.078c-17.514-4.661-34.079-19.752-34.079-19.752m-1.901 19.654c-1.247-17.007 8.027-38.546 8.027-38.546" fill="none" fill-rule="evenodd" stroke="#fff" stroke-width="5"/>
  <path d="M35.979 72.675c-3.299-6.822-5.332-12.44-6.672-18.439-.8-3.586-1.564-9.214-1.283-9.464.79-.704 8-2.653 12.505-3.38 5.762-.93 5.645-.923 5.43-.385-2.979 7.414-5.462 16.051-6.732 23.41-.46 2.671-.915 7.15-1.146 11.3-.065 1.161-.081 1.137-2.102-3.042z" fill="#353839" stroke="#fff" stroke-width="5"/>
  <path d="M32.195 40.403c6.868-6.681 14.554-12.105 21.74-15.342l2.566-1.155 1.7 2.304c.934 1.268 2.457 3.583 3.384 5.144 1.783 3.004 4.435 8.134 4.283 8.286-.05.05-1.991-.03-4.315-.177-9.448-.597-21.095.545-28.828 2.828-1.31.386-2.62.756-2.91.822-.292.066.777-1.15 2.38-2.71z" fill="#353839" stroke="#fff" stroke-width="5"/>
  <path d="M72.288 55.681c-2.435-10.188-7.718-22.173-12.833-29.11-.68-.923-1.183-1.734-1.115-1.801.16-.16 5.806 2.677 8.474 4.258 5.869 3.477 10.93 7.394 15.315 11.854 1.71 1.738 3.109 3.263 3.109 3.388 0 .864-7.564 9.666-10.865 12.644L72.9 58.242l-.612-2.562z" fill="#353839" stroke="#fff" stroke-width="5"/>
  <path d="M72.275 77.621c-4.213-1.39-12.287-5.13-14.154-6.556-.516-.394-.517-.411-.028-.71 2.92-1.781 8.12-5.44 11.007-7.747 4.26-3.402 10.687-9.776 13.624-13.51 2.498-3.174 2.552-3.118 1.721 1.795-1.555 9.205-4.524 18.056-8.337 24.85-.815 1.452-1.505 2.635-1.533 2.63-.028-.01-1.064-.344-2.3-.752z" fill="#353839" stroke="#fff" stroke-width="5"/>
  <path d="M49.92 80.205c-3.342-.253-5.751-.587-8.659-1.2-2.018-.426-2.047-.444-2.219-1.359-.387-2.063.56-11.898 1.575-16.37l.34-1.501 1.043.923c7.805 6.913 21.732 15.167 29.431 17.441.78.23 1.025.402.774.542-.661.37-7.647 1.273-11.967 1.548-4.71.299-6.089.295-10.318-.024z" fill="#353839" stroke="#fff" stroke-width="5"/>
  <path d="M34.343 77.062c-1.584-.565-3.9-1.518-5.148-2.116-14.04-6.738-22.853-19.625-22.162-32.41.196-3.62.858-6.193 2.383-9.26 3.641-7.321 10.381-11.464 20.625-12.675.967-.115 1.25-.071 1.144.177-2.166 5.09-3.077 8.216-3.771 12.948-.601 4.097-.413 12.786.372 17.144 1.459 8.1 4.079 15.666 8.197 23.675 1.01 1.965 1.703 3.567 1.538 3.56-.164-.01-1.595-.477-3.178-1.043z" fill="#ffd300" stroke="#fff" stroke-width="5"/>
  <path fill="none" stroke-width=".495" d="M48.169 45.328h16.862V62.19H48.169z"/>
  <path d="M48.41 61.949c16.14-16.621 16.38-16.621 16.38-16.621" fill="none" fill-rule="evenodd" stroke-width=".793"/>
  <path d="M53.154 65.277c-4.131-2.833-9.445-6.95-9.445-7.318 0-.614 1.939-7.054 3.306-10.98l1.471-4.227 2.772-.26c3.305-.311 13.086.055 13.537.506.596.596 4.946 13.793 4.984 15.12.01.329-9.52 7.304-11.948 8.746l-1.268.752-3.41-2.339z" fill="#fff" stroke="#fff"/>
  <path d="M51.497 67.752c-2.163-1.448-4.2-2.847-4.528-3.11l-.595-.476L56.52 54.022l10.147-10.144 1.219 3.532c1.915 5.547 3.508 11.574 3.141 11.887-4.64 3.96-7.977 6.471-12.105 9.11-1.702 1.088-3.184 1.978-3.294 1.978-.11 0-1.969-1.185-4.131-2.633z" fill="#ffd300" stroke="#fff" stroke-width="5"/>
</svg>
