<?xml version="1.0" encoding="UTF-8" standalone="no"?>
<svg
   xmlns:dc="http://purl.org/dc/elements/1.1/"
   xmlns:cc="http://creativecommons.org/ns#"
   xmlns:rdf="http://www.w3.org/1999/02/22-rdf-syntax-ns#"
   xmlns:svg="http://www.w3.org/2000/svg"
   xmlns="http://www.w3.org/2000/svg"
   width="280"
   height="122"
   viewBox="0 0 280 122"
   id="svg6467"
   version="1.1">
  <defs id="defs6469">
    <style type="text/css">
      @font-face {
        font-family: Mosk;
        src: url('../fonts/Mosk_Bold_700.woff');
      }
    </style>
  </defs>
  <metadata
     id="metadata6472">
    <rdf:RDF>
      <cc:Work
         rdf:about="">
        <dc:format>image/svg+xml</dc:format>
        <dc:type
           rdf:resource="http://purl.org/dc/dcmitype/StillImage" />
        <dc:title></dc:title>
      </cc:Work>
    </rdf:RDF>
  </metadata>
  <g
     id="layer1"
     transform="translate(-20.825425,-922.32859)">
    <text
       xml:space="preserve"
       style="font-style:normal;font-variant:normal;font-weight:900;font-stretch:normal;font-size:30px;line-height:110.00000238%;font-family:Mosk;-inkscape-font-specification:'Mosk, Heavy';text-align:start;letter-spacing:0px;word-spacing:0px;writing-mode:lr-tb;text-anchor:start;display:inline;fill:#353839;fill-opacity:1;stroke:none;stroke-width:1px;stroke-linecap:butt;stroke-linejoin:miter;stroke-opacity:1"
       x="143.50534"
       y="954.54352"
       id="text4334-7-5-6"><tspan
         id="tspan4336-7-1-4"
         x="143.50534"
         y="954.54352"
         style="font-style:normal;font-variant:normal;font-weight:bold;font-stretch:normal;font-size:30px;line-height:110.00000238%;font-family:Mosk;-inkscape-font-specification:'Mosk Bold';text-align:start;writing-mode:lr-tb;text-anchor:start;fill:#353839;fill-opacity:1">South</tspan><tspan
         x="143.50534"
         y="987.54352"
         id="tspan4338-5-7-7"
         style="font-style:normal;font-variant:normal;font-weight:bold;font-stretch:normal;font-size:30px;line-height:110.00000238%;font-family:Mosk;-inkscape-font-specification:'Mosk Bold';text-align:start;writing-mode:lr-tb;text-anchor:start;fill:#353839;fill-opacity:1">Yorkshire</tspan><tspan
         x="143.50534"
         y="1020.5435"
         id="tspan4340-5-5-7"
         style="font-style:normal;font-variant:normal;font-weight:bold;font-stretch:normal;font-size:30px;line-height:110.00000238%;font-family:Mosk;-inkscape-font-specification:'Mosk Bold';text-align:start;writing-mode:lr-tb;text-anchor:start;fill:#353839;fill-opacity:1">Orienteers</tspan></text>
    <path
       style="display:inline;fill:#353839;fill-opacity:1;stroke:#ffffff;stroke-width:4.65574265;stroke-miterlimit:4;stroke-dasharray:none;stroke-opacity:1"
       id="path4862-8-1-9-6-6-4-1-4-8"
       d="m 1397.0805,1115.6733 -45.4406,36.7971 -49.0381,-31.8457 15.1335,-56.4788 58.391,-3.0601 z"
       transform="matrix(1.1335415,0.05473011,-0.05473011,1.1335415,-1391.2944,-347.66626)" />
    <path
       style="display:inline;opacity:1;fill:#ffd700;fill-opacity:1;stroke:#ffffff;stroke-width:5;stroke-linecap:butt;stroke-linejoin:miter;stroke-miterlimit:4;stroke-dasharray:none;stroke-opacity:1"
       d="m 48.727082,961.35113 c 0.1793,-5.8736 0.8763,-9.5789 2.7615,-14.68251 4.2033,-11.3784 13.6811,-19.9105 23.9591,-21.5685 2.8603,-0.4614 7.4745,-0.2076 9.8469,0.5417 6.4304,2.031 11.2892,6.4311 14.746568,13.3548 0.5086,1.0186 1.0136,2.1378 1.1222,2.4871 0.168,0.5403 0.126,0.6079 -0.2806,0.4518 -0.920798,-0.3533 -8.673168,-0.2002 -11.541768,0.228 -12.6676,1.8908 -25.4235,8.84981 -37.0791,20.22841 l -3.6762,3.5889 0.1414,-4.6297 z"
       id="path5534-4-5-1-2-1-5-4-4-0-7-9-4" />
    <path
       style="display:inline;opacity:1;fill:#ffd300;fill-opacity:1;stroke:#ffffff;stroke-width:5;stroke-linecap:butt;stroke-linejoin:miter;stroke-miterlimit:4;stroke-dasharray:none;stroke-opacity:1"
       d="m 117.18326,986.63083 c -0.7931,-4.0314 -3.6378,-10.7819 -6.23641,-14.7989 -6.226,-9.6244 -15.284568,-17.3958 -27.723568,-23.7843 l -4.4533,-2.28721 1.0698,-0.428 c 1.8273,-0.7312 6.9185,-2.0029 9.6887,-2.4201 3.3859,-0.51 9.30917,-0.5106 12.688568,0 7.1938,1.0843 13.26221,3.9186 18.03401,8.42291 5.23589,4.9426 7.81159,10.5287 7.82189,16.9641 0.01,4.582 -1.3743,8.9218 -4.1877,13.1537 -1.1788,1.7733 -5.75269,6.8262 -6.17909,6.8262 -0.1093,0 -0.3446,-0.7412 -0.5229,-1.6471 z"
       id="path5542-6-6-6-3-0-1-0-4-2-3-7-3" />
    <path
       style="display:inline;opacity:1;fill:#ffd300;fill-opacity:1;stroke:#ffffff;stroke-width:5;stroke-linecap:butt;stroke-linejoin:miter;stroke-miterlimit:4;stroke-dasharray:none;stroke-opacity:1"
       d="m 89.131682,1022.7876 c -3.1083,-0.667 -7.2138,-2.3211 -10.0663,-4.0558 l -0.8177,-0.4973 2.0657,-1.2541 c 14.2244,-8.6359 23.644868,-25.73437 26.419968,-47.95327 l 0.1741,-1.3935 0.8703,1.1398 c 4.09551,5.3637 7.46901,12.5684 8.72481,18.6335 2.4006,11.5936 -0.7054,23.25347 -7.99141,29.99897 -4.3374,4.0157 -8.919798,5.8082 -14.749868,5.7698 -1.6005,-0.01 -3.6839,-0.1852 -4.6296,-0.3881 z"
       id="path5540-1-9-9-4-0-8-3-5-0-8-8-6" />
    <path
       style="display:inline;opacity:1;fill:#ffd300;fill-opacity:1;stroke:#ffffff;stroke-width:5;stroke-linecap:butt;stroke-linejoin:miter;stroke-miterlimit:4;stroke-dasharray:none;stroke-opacity:1"
       d="m 57.253382,1021.4302 c -6.021,-0.7726 -12.2185,-3.8886 -15.5549,-7.8207 -3.6003,-4.2431 -5.2123,-8.7358 -5.2123,-14.52697 0,-2.6827 0.7336,-7.6261 1.2753,-8.5942 0.1304,-0.233 0.7017,0.1063 1.9026,1.1301 5.8012,4.9456 13.919,8.76317 22.3512,10.51107 4.9979,1.036 8.0425,1.322 14.1534,1.3294 5.8712,0.01 9.1569,-0.2565 14.7634,-1.1844 1.7904,-0.2963 3.3621,-0.5013 3.4926,-0.4555 0.4695,0.1648 -3.3398,4.9074 -6.3355,7.8875 -3.6013,3.5828 -6.9786,6.0529 -10.9946,8.0412 -5.3368,2.6424 -10.5695,3.8941 -15.9857,3.824 -1.6841,-0.022 -3.419,-0.085 -3.8555,-0.1415 z"
       id="path5538-9-8-0-0-8-7-3-4-8-8-6-8" />
    <path
       style="display:inline;fill:none;fill-rule:evenodd;stroke:#ffffff;stroke-width:5;stroke-linecap:butt;stroke-linejoin:miter;stroke-miterlimit:4;stroke-dasharray:none;stroke-opacity:1"
       d="m 48.385682,966.80613 c 16.8467,-6.9445 38.9968,-4.2413 38.9968,-4.2413"
       id="path4871-0-1-6-9-4-6-8-9-6-4-7-91-8-40-8-8-5" />
    <path
       style="display:inline;fill:none;fill-rule:evenodd;stroke:#ffffff;stroke-width:5;stroke-linecap:butt;stroke-linejoin:miter;stroke-miterlimit:4;stroke-dasharray:none;stroke-opacity:1"
       d="m 77.425382,945.77742 c 12.5541,15.42901 16.0314,35.60671 16.0314,35.60671"
       id="path4871-8-50-6-6-91-9-8-3-2-9-3-2-22-3-8-0-2-9" />
    <path
       style="display:inline;fill:none;fill-rule:evenodd;stroke:#ffffff;stroke-width:5;stroke-linecap:butt;stroke-linejoin:miter;stroke-miterlimit:4;stroke-dasharray:none;stroke-opacity:1"
       d="m 106.55905,966.76703 c -11.620568,16.8769 -29.061168,26.2413 -29.061168,26.2413"
       id="path4871-84-7-4-8-70-9-4-6-5-1-8-3-0-3-5-6-5-7" />
    <path
       style="display:inline;fill:none;fill-rule:evenodd;stroke:#ffffff;stroke-width:5;stroke-linecap:butt;stroke-linejoin:miter;stroke-miterlimit:4;stroke-dasharray:none;stroke-opacity:1"
       d="m 95.519082,1001.0862 c -17.5135,-4.66137 -34.0779,-19.75227 -34.0779,-19.75227"
       id="path4871-3-10-5-5-15-8-9-4-9-6-4-5-0-5-2-5-9-6" />
    <path
       style="display:inline;fill:none;fill-rule:evenodd;stroke:#ffffff;stroke-width:5;stroke-linecap:butt;stroke-linejoin:miter;stroke-miterlimit:4;stroke-dasharray:none;stroke-opacity:1"
       d="m 59.540582,1000.9879 c -1.2473,-17.00727 8.0264,-38.54577 8.0264,-38.54577"
       id="path4871-6-5-4-4-71-8-1-0-3-3-0-2-5-1-7-7-2-8" />
    <path
       style="display:inline;opacity:1;fill:#353839;fill-opacity:1;stroke:#ffffff;stroke-width:5;stroke-linecap:butt;stroke-linejoin:miter;stroke-miterlimit:4;stroke-dasharray:none;stroke-opacity:1"
       d="m 56.803582,995.00373 c -3.2985,-6.8214 -5.3315,-12.4402 -6.6714,-18.4383 -0.8011,-3.5867 -1.5639,-9.2141 -1.2829,-9.4647 0.7892,-0.7039 7.999,-2.6528 12.5046,-3.3803 5.7622,-0.9303 5.645,-0.922 5.4292,-0.3846 -2.9777,7.4145 -5.461,16.0516 -6.7309,23.4105 -0.461,2.6711 -0.9153,7.1495 -1.1464,11.2997 -0.065,1.161 -0.081,1.1367 -2.1022,-3.0423 z"
       id="path5508-2-3-5-0-9-0-4-1-85-5-9-2" />
    <path
       style="display:inline;opacity:1;fill:#353839;fill-opacity:1;stroke:#ffffff;stroke-width:5;stroke-linecap:butt;stroke-linejoin:miter;stroke-miterlimit:4;stroke-dasharray:none;stroke-opacity:1"
       d="m 53.020582,962.73163 c 6.8671,-6.6808 14.5531,-12.1045 21.74,-15.34131 l 2.5659,-1.1556 1.6989,2.30471 c 0.9344,1.2675 2.4574,3.5821 3.3844,5.1435 1.7837,3.0042 4.4354,8.1337 4.2833,8.2857 -0.05,0.05 -1.9915,-0.03 -4.3153,-0.1768 -9.4477,-0.5973 -21.0943,0.5451 -28.8281,2.8277 -1.3096,0.3865 -2.6191,0.7568 -2.9101,0.8229 -0.2916,0.066 0.777,-1.1505 2.381,-2.7108 z"
       id="path5510-3-8-0-9-7-1-4-2-71-0-1-2" />
    <path
       style="display:inline;opacity:1;fill:#353839;fill-opacity:1;stroke:#ffffff;stroke-width:5;stroke-linecap:butt;stroke-linejoin:miter;stroke-miterlimit:4;stroke-dasharray:none;stroke-opacity:1"
       d="m 93.112682,978.00933 c -2.4342,-10.1877 -7.7178,-22.1728 -12.8325,-29.109 -0.681,-0.9235 -1.183,-1.73431 -1.1156,-1.80181 0.1598,-0.1598 5.806,2.67731 8.4745,4.25821 5.8687,3.477 10.93017,7.3945 15.315268,11.854 1.7097,1.7387 3.1085,3.2635 3.1085,3.3886 0,0.8637 -7.563798,9.6656 -10.864768,12.6432 l -1.4733,1.3289 -0.6121,-2.5621 z"
       id="path5512-9-1-6-9-6-6-7-8-44-5-0-1" />
    <path
       style="display:inline;opacity:1;fill:#353839;fill-opacity:1;stroke:#ffffff;stroke-width:5;stroke-linecap:butt;stroke-linejoin:miter;stroke-miterlimit:4;stroke-dasharray:none;stroke-opacity:1"
       d="m 93.099882,999.94963 c -4.2125,-1.3898 -12.2868,-5.1296 -14.1534,-6.5556 -0.5165,-0.3945 -0.5172,-0.4114 -0.028,-0.7099 2.9204,-1.7812 8.1202,-5.441 11.0067,-7.7468 4.2595,-3.4027 10.686768,-9.7762 13.624268,-13.5104 2.4971,-3.1743 2.5511,-3.118 1.721,1.7954 -1.555,9.205 -4.5246,18.0553 -8.337598,24.849 -0.81507,1.4522 -1.50497,2.63587 -1.53317,2.63027 -0.028,-0.01 -1.0632,-0.344 -2.2999,-0.75197 z"
       id="path5514-8-6-4-0-9-4-99-6-8-7-0-8" />
    <path
       style="display:inline;opacity:1;fill:#353839;fill-opacity:1;stroke:#ffffff;stroke-width:5;stroke-linecap:butt;stroke-linejoin:miter;stroke-miterlimit:4;stroke-dasharray:none;stroke-opacity:1"
       d="m 70.745382,1002.5336 c -3.3421,-0.2527 -5.7514,-0.5866 -8.659,-1.2001 -2.0181,-0.4259 -2.0475,-0.4439 -2.2191,-1.35817 -0.387,-2.0632 0.5589,-11.8982 1.5745,-16.37 l 0.341,-1.5013 1.0421,0.9231 c 7.8049,6.9131 21.7326,15.1667 29.4312,17.44107 0.78,0.2304 1.0245,0.4017 0.7738,0.542 -0.6609,0.37 -7.6468,1.2733 -11.967,1.5475 -4.7096,0.2989 -6.0884,0.2957 -10.3175,-0.024 z"
       id="path5516-2-4-4-5-5-6-4-9-4-5-6-7" />
    <path
       style="display:inline;opacity:1;fill:#ffd300;fill-opacity:1;stroke:#ffffff;stroke-width:5;stroke-linecap:butt;stroke-linejoin:miter;stroke-miterlimit:4;stroke-dasharray:none;stroke-opacity:1"
       d="m 55.167682,999.39133 c -1.5837,-0.5657 -3.8999,-1.5182 -5.1472,-2.1167 -14.041,-6.7374 -22.8537,-19.6249 -22.162,-32.4094 0.196,-3.6211 0.8578,-6.1936 2.3824,-9.2593 3.6413,-7.3223 10.3811,-11.46461 20.6249,-12.67631 0.9675,-0.1144 1.2499,-0.071 1.1443,0.1775 -2.1665,5.09081 -3.0766,8.21581 -3.7711,12.94751 -0.6012,4.097 -0.4127,12.7867 0.372,17.1439 1.4587,8.0997 4.0786,15.6668 8.1969,23.6754 1.0106,1.9653 1.7029,3.56707 1.5383,3.55957 -0.1645,-0.01 -1.5949,-0.47647 -3.1785,-1.04217 z"
       id="path5536-5-0-4-9-0-0-2-4-6-3-8-1" />
    <rect
       style="display:inline;opacity:1;fill:none;fill-opacity:1;stroke:none;stroke-width:0.495316;stroke-linecap:butt;stroke-linejoin:miter;stroke-miterlimit:4;stroke-dasharray:none;stroke-opacity:1"
       id="rect6158-4-1-6-4-9-48-7-4-0"
       width="16.861824"
       height="16.861824"
       x="68.994102"
       y="967.65656" />
    <path
       style="display:inline;fill:none;fill-rule:evenodd;stroke:none;stroke-width:0.79250562px;stroke-linecap:butt;stroke-linejoin:miter;stroke-opacity:1"
       d="m 69.235182,984.27753 c 16.1391,-16.6209 16.3801,-16.6209 16.3801,-16.6209"
       id="path6160-4-5-3-5-5-3-6-6-4" />
    <path
       style="display:inline;fill:#ffffff;fill-opacity:1;stroke:#ffffff;stroke-opacity:1"
       d="m 73.978682,987.60643 c -4.1311,-2.8331 -9.4442,-6.9502 -9.4442,-7.3181 0,-0.6146 1.9384,-7.0543 3.3052,-10.9806 l 1.4715,-4.2269 2.7714,-0.2604 c 3.3055,-0.3106 13.0861,0.056 13.5375,0.507 0.5959,0.5959 4.9459,13.7923 4.9836,15.1188 0.01,0.3295 -9.5196,7.3052 -11.9479,8.7465 l -1.2673,0.7522 -3.4098,-2.3385 z"
       id="path5183-3-5-7-7" />
    <path
       style="display:inline;opacity:1;fill:#ffd300;fill-opacity:1;stroke:#ffffff;stroke-width:5;stroke-linecap:butt;stroke-linejoin:miter;stroke-miterlimit:4;stroke-dasharray:none;stroke-opacity:1"
       d="m 72.321582,990.08123 c -2.1626,-1.4482 -4.1998,-2.8475 -4.5273,-3.1097 l -0.5953,-0.4766 10.1464,-10.1438 10.1463,-10.1437 1.2193,3.5312 c 1.9155,5.5474 3.508,11.5743 3.141,11.8875 -4.6405,3.9598 -7.9773,6.4711 -12.105,9.1102 -1.7015,1.0879 -3.1836,1.978 -3.2936,1.978 -0.1099,0 -1.9692,-1.1849 -4.1318,-2.6331 z"
       id="path5504-7-7-9-8-4-7-4-7" />
  </g>
</svg>
